<svg viewBox="0 0 127.14 127.14" width="127.14" height="127.14">
   <path fill="currentColor"
      d="M 107.7,23.46 A 105.15,105.15 0 0 0 81.47,15.39 72.06,72.06 0 0 0 78.11,22.22 97.68,97.68 0 0 0 49,22.22 72.37,72.37 0 0 0 45.64,15.39 105.89,105.89 0 0 0 19.39,23.48 C 2.79,48.04 -1.71,71.99 0.54,95.6 v 0 a 105.73,105.73 0 0 0 32.17,16.15 77.7,77.7 0 0 0 6.89,-11.11 68.42,68.42 0 0 1 -10.85,-5.18 c 0.91,-0.66 1.8,-1.34 2.66,-2 a 75.57,75.57 0 0 0 64.32,0 c 0.87,0.71 1.76,1.39 2.66,2 a 68.68,68.68 0 0 1 -10.87,5.19 77,77 0 0 0 6.89,11.1 105.25,105.25 0 0 0 32.19,-16.14 v 0 C 129.24,68.23 122.09,44.5 107.7,23.46 Z M 42.45,81.08 C 36.18,81.08 31,75.39 31,68.39 c 0,-7 5,-12.74 11.43,-12.74 6.43,0 11.57,5.74 11.46,12.74 -0.11,7 -5.05,12.69 -11.44,12.69 z m 42.24,0 c -6.28,0 -11.44,-5.69 -11.44,-12.69 0,-7 5,-12.74 11.44,-12.74 6.44,0 11.54,5.74 11.43,12.74 -0.11,7 -5.04,12.69 -11.43,12.69 z" />
</svg>