<svg width="127.14" height="127.14" viewBox="0 0 127.14 127.14"><path fill="currentColor" d="M107.7 23.46a105.15 105.15 0 0 0-26.23-8.07 72.06 72.06 0 0 0-3.36 6.83 97.68 97.68 0 0 0-29.11 0 72.37 72.37 0 0 0-3.36-6.83 105.89 105.89 0 0 0-26.25 8.09C2.79 48.04-1.71 71.99.54 95.6a105.73 105.73 0 0 0 32.17 16.15 77.7 77.7 0 0 0 6.89-11.11 68.42 68.42 0 0 1-10.85-5.18c.91-.66 1.8-1.34 2.66-2a75.57 75.57 0 0 0 64.32 0c.87.71 1.76 1.39 2.66 2a68.68 68.68 0 0 1-10.87 5.19 77 77 0 0 0 6.89 11.1 105.25 105.25 0 0 0 32.19-16.14c2.64-27.38-4.51-51.11-18.9-72.15ZM42.45 81.08C36.18 81.08 31 75.39 31 68.39c0-7 5-12.74 11.43-12.74S54 61.39 53.89 68.39c-.11 7-5.05 12.69-11.44 12.69zm42.24 0c-6.28 0-11.44-5.69-11.44-12.69 0-7 5-12.74 11.44-12.74 6.44 0 11.54 5.74 11.43 12.74-.11 7-5.04 12.69-11.43 12.69z"/></svg>