<svg xmlns="http://www.w3.org/2000/svg" width="24" height="24" fill="currentColor"><path d="M14.693 19.206c0 .38.305.761.762.761H18.5c.457 0 .761-.38.761-.761v-.762h-4.568ZM16.977 4.74a5.297 5.297 0 0 0-5.33 5.33c0 1.827.915 3.426 2.285 4.34v1.75c0 .381.305.762.761.762h4.568a.764.764 0 0 0 .762-.762v-1.75c1.37-.99 2.284-2.59 2.284-4.34 0-2.97-2.36-5.33-5.33-5.33z" style="stroke-width:.761352"/><path d="M12.065 4.74c-2.97 0-5.33 2.36-5.33 5.33 0 1.827.914 3.425 2.284 4.339v1.751c0 .381.305.762.762.762h3.451a1.571 1.571 0 0 1-.198-.762v-1.359c-1.373-1.106-2.284-2.798-2.284-4.732a6.213 6.213 0 0 1 2.715-5.146 5.436 5.436 0 0 0-1.4-.183ZM9.78 18.444v.762c0 .38.304.761.761.761h3.045a.746.746 0 0 0 .356-.09 1.636 1.636 0 0 1-.147-.671v-.762z" style="stroke-width:.761352"/><path d="M7.186 4.74c-2.97 0-5.33 2.36-5.33 5.33 0 1.827.914 3.425 2.284 4.339v1.751c0 .381.305.762.762.762h3.451a1.571 1.571 0 0 1-.198-.762v-1.359c-1.372-1.106-2.284-2.798-2.284-4.732a6.213 6.213 0 0 1 2.716-5.146 5.436 5.436 0 0 0-1.401-.183ZM4.902 18.444v.762c0 .38.304.761.761.761H8.71a.746.746 0 0 0 .355-.09 1.636 1.636 0 0 1-.147-.671v-.762z" style="stroke-width:.761352"/></svg>