<svg xmlns="http://www.w3.org/2000/svg" width="24" height="24" fill="currentColor" viewBox="0 0 24 24"><path d="M12 2C8.14 2 5 5.14 5 9a6.94 6.94 0 0 0 1.076 3.723l1.617-1.192A4.973 4.973 0 0 1 7 9a5.002 5.002 0 0 1 8.697-3.365l1.614-1.19A6.987 6.987 0 0 0 12 2zm6.994 6.795-2.201 1.623A5.011 5.011 0 0 1 14.85 13.1l-.85.6V16h-4v-.578l-2 1.473V17c0 .55.45 1 1 1h6c.55 0 1-.45 1-1v-2.26c1.81-1.27 3-3.36 3-5.74 0-.069-.004-.137-.006-.205zM9 20v1c0 .55.45 1 1 1h4c.55 0 1-.45 1-1v-1H9zm-3.993-5.09L18.981 4.616a.4.4 8.62 0 1 .559.085l.863 1.17a.4.4 98.62 0 1-.085.56L6.345 16.725a.4.4 8.62 0 1-.56-.084l-.862-1.171a.4.4 98.62 0 1 .084-.56z"/></svg>