<svg xmlns="http://www.w3.org/2000/svg" width="24" height="24" fill="currentColor" viewBox="0 0 24 24"><path d="M7.215 2.002A6.956 6.956 0 0 0 .416 8.801c-.003.11-.003.288 0 .398.063 2.243 1.175 4.206 2.834 5.387a.43.43 0 0 1 .164.312v.467a.102.102 0 0 0 .016.026l2.164-1.569a.197.197 0 0 0-.032-.062C4.56 12.5 3.913 10.942 3.867 9.2a8.087 8.087 0 0 1 3.814-7.08c.094-.06.084-.11-.027-.114l-.04-.002a7.644 7.644 0 0 0-.4-.002zm4.615 0a6.956 6.956 0 0 0-6.799 6.799 6.894 6.894 0 0 0 1.367 4.352c.016.02.035.036.055.048l2.426-1.758a.243.243 0 0 0-.01-.07 7.411 7.411 0 0 1-.387-2.572 8.087 8.087 0 0 1 3.815-6.682c.094-.058.083-.109-.027-.113l-.041-.002a7.649 7.649 0 0 0-.399-.002zm4.557 0a7.012 7.012 0 0 0-6.8 7.197 7.03 7.03 0 0 0 .214 1.506c.005.02.014.036.023.05l1.791-1.296c.002-.02.004-.039.002-.057a4.128 4.128 0 0 1-.027-.602 5.004 5.004 0 0 1 5.195-4.796 4.97 4.97 0 0 1 1.742.392c.017.007.036.01.055.014l1.78-1.289a.162.162 0 0 0-.044-.04 6.961 6.961 0 0 0-3.931-1.079zm6.812 4.746-1.71 1.238a.282.282 0 0 0 .003.067 4.998 4.998 0 0 1 .09 1.146 4.998 4.998 0 0 1-1.984 3.783c-.088.067-.236.17-.327.233l-.521.369a.386.386 0 0 0-.164.314v1.903a.2.2 0 0 1-.2.199h-3.6a.2.2 0 0 1-.2-.2v-1.902a.385.385 0 0 0-.164-.314l-.28-.197a.28.28 0 0 0-.072-.022l-1.68 1.217a.168.168 0 0 0 .042.047c.084.062.154.2.154.31v1.862c0 .11-.002.29.02.398.08.392.39.702.78.781.109.022.289.02.4.02h5.6c.111 0 .291.002.4-.02.39-.08.7-.39.78-.78.022-.109.02-.289.02-.4v-1.86c0-.111.073-.251.162-.317a6.996 6.996 0 0 0 2.484-7.82.167.167 0 0 0-.033-.055zm-11.736 8.506-3.219 2.334a.163.163 0 0 0 .031.062.97.97 0 0 0 .555.33c.108.022.288.02.399.02h2.33c.11 0 .152-.078.105-.178a1.966 1.966 0 0 1-.174-.623c-.011-.11-.01-.288-.01-.398v-1.52a.102.102 0 0 0-.017-.027zM4.916 20l-.494.36a.343.343 0 0 0-.008.044v.397c0 .11-.001.29.022.398a1 1 0 0 0 .779.781c.108.022.288.02.398.02h2.315c.11 0 .155-.078.111-.18a2.09 2.09 0 0 1-.164-.62c-.011-.11-.01-.289-.01-.4v-.6a.2.2 0 0 0-.199-.2h-2.75zm4.313 0a.2.2 0 0 0-.2.2v.6c0 .111 0 .291.022.4a1 1 0 0 0 .78.78c.107.022.287.02.398.02h2.314c.11 0 .155-.078.111-.18a2.089 2.089 0 0 1-.164-.62c-.01-.11-.01-.289-.01-.4v-.6a.2.2 0 0 0-.199-.2H9.23zm4.556 0a.2.2 0 0 0-.2.2v.6c0 .111-.001.291.02.4.08.39.39.7.782.78.108.022.288.02.398.02h3.602c.11 0 .29.002.398-.02.392-.08.702-.39.781-.78.022-.109.02-.289.02-.4v-.6a.2.2 0 0 0-.2-.2h-5.6zM21.563 3.146 1.814 17.46a.551.551 0 0 0-.119.78l1.22 1.626a.57.57 0 0 0 .79.117L23.451 5.67a.551.551 0 0 0 .121-.78l-1.22-1.626a.57.57 0 0 0-.79-.118Z"/></svg>