<svg height="24px" viewBox="0 0 24 24" width="24px" fill="currentColor" xmlns="http://www.w3.org/2000/svg">
   <path
      d="M 12 2 C 8.14 2 5 5.14 5 9 C 5 10.371098 5.3952747 11.645383 6.0761719 12.722656 L 7.6933594 11.53125 C 7.2455511 10.773394 7 9.9022278 7 9 C 7 6.24 9.24 4 12 4 C 13.464268 4 14.78256 4.6306464 15.697266 5.6347656 L 17.310547 4.4453125 C 16.0258 2.9497157 14.121791 2 12 2 z M 18.994141 8.7949219 L 16.792969 10.417969 C 16.473796 11.489695 15.797203 12.439803 14.849609 13.099609 L 14 13.699219 L 14 16 L 10 16 L 10 15.421875 L 8 16.894531 L 8 17 C 8 17.55 8.45 18 9 18 L 15 18 C 15.55 18 16 17.55 16 17 L 16 14.740234 C 17.81 13.470234 19 11.38 19 9 C 19 8.9311625 18.996124 8.8632877 18.994141 8.7949219 z M 9 20 L 9 21 C 9 21.55 9.45 22 10 22 L 14 22 C 14.55 22 15 21.55 15 21 L 15 20 L 9 20 z " />
   <path
      d="M 5.0074622,14.910231 18.980639,4.6159443 a 0.39999999,0.39999999 8.6202667 0 1 0.559295,0.084788 L 20.402727,5.871864 A 0.40000001,0.40000001 98.620267 0 1 20.31794,6.4311592 L 6.3447632,16.725446 A 0.39999998,0.39999998 8.6202673 0 1 5.7854681,16.640659 L 4.9226743,15.469526 a 0.40000002,0.40000002 98.620267 0 1 0.084788,-0.559295 z" />
</svg>