<svg xmlns="http://www.w3.org/2000/svg" width="24" height="24" fill="currentColor" viewBox="0 0 24 24"><path d="M16.586 2c-3.9 0-7 3.1-7 7 0 2.4 1.2 4.5 3 5.7V17c0 .5.4 1 1 1h6c.6 0 1-.5 1-1v-2.3c1.8-1.3 3-3.4 3-5.7 0-3.9-3.1-7-7-7zm-3 18v1c0 .5.4 1 1 1h4c.6 0 1-.5 1-1v-1z"/><path d="M12.03 2c-3.9 0-7 3.1-7 7 0 2.4 1.2 4.5 3 5.7V17c0 .5.4 1 1 1h2.728a1.971 1.971 0 0 1-.277-1v-1.924c-1.77-1.444-3-3.576-3-6.076 0-2.981 1.6-5.576 3.988-6.984a7.27 7.27 0 0 0-.44-.016Zm-3 18v1c0 .5.4 1 1 1h2.712a2.086 2.086 0 0 1-.261-1v-1z"/><path d="M7.414 2c-3.9 0-7 3.1-7 7 0 2.4 1.2 4.5 3 5.7V17c0 .5.4 1 1 1h2.729a1.971 1.971 0 0 1-.278-1v-1.924c-1.77-1.444-3-3.576-3-6.076 0-2.981 1.6-5.576 3.988-6.984A7.27 7.27 0 0 0 7.414 2Zm-3 18v1c0 .5.4 1 1 1h2.713a2.086 2.086 0 0 1-.262-1v-1z"/></svg>