<svg xmlns="http://www.w3.org/2000/svg" width="24" height="24" fill="currentColor" viewBox="0 0 24 24"><path d="M9 21c0 .55.45 1 1 1h4c.55 0 1-.45 1-1v-1H9v1zm3-19C8.14 2 5 5.14 5 9c0 2.38 1.19 4.47 3 5.74V17c0 .55.45 1 1 1h6c.55 0 1-.45 1-1v-2.26c1.81-1.27 3-3.36 3-5.74 0-3.86-3.14-7-7-7zm2.85 11.1-.85.6V16h-4v-2.3l-.85-.6A4.997 4.997 0 0 1 7 9c0-2.76 2.24-5 5-5s5 2.24 5 5c0 1.63-.8 3.16-2.15 4.1z"/><path d="M11.827 5.323c-.213.01-.434.035-.66.075a8.734 8.734 0 0 0-.436.09 5.984 5.984 0 0 0-.534.149.602.602 0 0 0-.43.608v.674a.49.49 0 0 0 .208.408.49.49 0 0 0 .46.024c.144-.064.291-.134.438-.199.097-.043.28-.115.359-.14.17-.049.346-.078.532-.09a3.38 3.38 0 0 1 .377 0c.191.017.346.065.476.136.052.028.212.159.233.185a.7.7 0 0 1 .143.37c.01.073.01.276.002.354-.011.096-.028.185-.054.265a2.18 2.18 0 0 1-.152.307 1.818 1.818 0 0 1-.169.218c-.06.068-.2.205-.27.263a4.875 4.875 0 0 1-.27.2c-.087.058-.25.162-.35.226-.122.077-.233.148-.334.21a.668.668 0 0 0-.344.612v1.22a.337.337 0 0 0 0 .003c0 .288.264.548.552.548h.538a.337.337 0 0 0 .002 0 .571.571 0 0 0 .549-.548.337.337 0 0 0 0-.003v-.802c0 .037.053-.065.024-.046a8.835 8.835 0 0 0 .798-.547 4.668 4.668 0 0 0 .368-.321 2.769 2.769 0 0 0 .778-1.223c.06-.19.097-.392.112-.603a3.31 3.31 0 0 0-.004-.484 2.207 2.207 0 0 0-.936-1.65c-.422-.301-.946-.458-1.542-.49a5.033 5.033 0 0 0-.464 0zm-.271 7.065a.573.573 0 0 0-.552.554v.708c0 .29.262.553.552.552h.672a.337.337 0 0 0 .002 0 .572.572 0 0 0 .549-.554v-.705a.572.572 0 0 0-.549-.555.337.337 0 0 0-.002 0h-.67z"/></svg>